<svg width="120" height="24" viewBox="0 0 120 24" fill="none" xmlns="http://www.w3.org/2000/svg">
<g id="Group 5">
<path id="Star 1" d="M11.6667 0L15.0954 6.9474L22.7623 8.06147L17.2145 13.4693L18.5242 21.1052L11.6667 17.5L4.80917 21.1052L6.11884 13.4693L0.571008 8.06147L8.23792 6.9474L11.6667 0Z" fill="#FCC810"/>
<path id="Star 2" d="M35.4167 0L38.7229 6.9474L46.116 8.06147L40.7663 13.4693L42.0292 21.1052L35.4167 17.5L28.8041 21.1052L30.067 13.4693L24.7173 8.06147L32.1104 6.9474L35.4167 0Z" fill="#FCC810"/>
<path id="Star 3" d="M60 0L63.1838 6.9474L70.3031 8.06147L65.1515 13.4693L66.3677 21.1052L60 17.5L53.6323 21.1052L54.8484 13.4693L49.6969 8.06147L56.8162 6.9474L60 0Z" fill="#FCC810"/>
<path id="Star 4" d="M84.5833 0L87.8896 6.9474L95.2827 8.06147L89.933 13.4693L91.1959 21.1052L84.5833 17.5L77.9708 21.1052L79.2337 13.4693L73.884 8.06147L81.2771 6.9474L84.5833 0Z" fill="#FCC810"/>
<path id="Star 5" d="M108.333 0L111.762 6.9474L119.429 8.06147L113.881 13.4693L115.191 21.1052L108.333 17.5L101.476 21.1052L102.785 13.4693L97.2377 8.06147L104.905 6.9474L108.333 0Z" fill="#FCC810"/>
</g>
</svg>
